<!-- From https://drummers-pulse.com -->
<svg viewBox="0 0 189 155" xmlns="http://www.w3.org/2000/svg">
    <g>
        <path d="M-.05 143.25c-2.57-9.6 7.45-20.63 22.4-24.64 14.93-4 29.12.6 31.7 10.2 2.57 9.6-7.45 20.63-22.4 24.64-14.93 4-29.12-.54-31.7-10.14zm67 0c-2.57-9.6 7.45-20.63 22.4-24.64 14.93-4 29.12.6 31.7 10.2 2.57 9.6-7.45 20.63-22.4 24.64-14.93 4-29.12-.54-31.7-10.14zm67 0c-2.57-9.6 7.45-20.63 22.4-24.64 14.93-4 29.12.6 31.7 10.2 2.57 9.6-7.45 20.63-22.4 24.64-14.93 4-29.12-.54-31.7-10.14z"/><path d="M48 43h6v85h-6zm67 0h6v85h-6zm67 0h6v85h-6z"/><path d="M51 43h137v18H51zm85-31h52v3h-52zm-88 0h52v3H48zm137 3h3v13h-3zM48 15h3v13h-3zm73.14.42c1.02 1.03 1.38 2.44 1.06 4.22-.3 1.78-.95 3.17-1.9 4.17-.96 1-2.1 1.5-3.44 1.5-1.34 0-2.36-.23-3.03-.9-.7-.6-.94-1.4-.75-2.43.1-.53.3-1.1.6-1.7-.52-.42-1.13-.66-1.8-.66-.66 0-1.24.2-1.74.63-.5.4-.8.95-.92 1.6-.3 1.73.17 3.07 1.42 4.04 1.25.97 3.1 1.45 5.55 1.45 2.4 0 4.5-.7 6.23-2.1 1.75-1.4 2.82-3.2 3.22-5.4.62-3.55-.84-5.82-4.37-6.82 3.7-1.1 5.8-3.2 6.33-6.26.36-1.95-.05-3.53-1.2-4.73-1.15-1.2-2.8-1.8-4.93-1.8-2.17 0-4.04.47-5.63 1.44-1.6 1-2.5 2.16-2.74 3.57-.16.8-.1 1.44.15 1.9s.7.7 1.36.7c.67 0 1.36-.22 2.07-.7-.2-.4-.26-.97-.1-1.8.14-.83.62-1.55 1.43-2.17.8-.6 1.8-.93 3-.93 1.17 0 2.02.4 2.55 1.16.54.78.66 1.9.4 3.36-.62 3.5-3.05 5.3-7.3 5.4l-.32 1.76c2.15 0 3.73.5 4.76 1.54z"/>
    </g>
</svg>
